<svg width="26" height="26" viewBox="0 0 26 26" fill="none" xmlns="http://www.w3.org/2000/svg">
<path d="M12.9978 25.8569C5.89677 25.8569 0.140625 20.1007 0.140625 12.9997C0.140625 5.89872 5.89677 0.142578 12.9978 0.142578C20.0988 0.142578 25.8549 5.89872 25.8549 12.9997C25.8549 20.1007 20.0988 25.8569 12.9978 25.8569ZM10.0535 22.8573C8.78502 20.1667 8.05017 17.2557 7.88963 14.2854H2.79177C3.04195 16.264 3.86138 18.1274 5.1505 19.6491C6.43962 21.1708 8.14293 22.2853 10.0535 22.8573ZM10.4649 14.2854C10.6591 17.4213 11.5552 20.3669 12.9978 22.9666C14.4793 20.2981 15.3448 17.3319 15.5306 14.2854H10.4649ZM23.2038 14.2854H18.1059C17.9454 17.2557 17.2105 20.1667 15.9421 22.8573C17.8526 22.2853 19.5559 21.1708 20.845 19.6491C22.1342 18.1274 22.9536 16.264 23.2038 14.2854ZM2.79177 11.714H7.88963C8.05017 8.74373 8.78502 5.83275 10.0535 3.14215C8.14293 3.71414 6.43962 4.82869 5.1505 6.35039C3.86138 7.87208 3.04195 9.73542 2.79177 11.714ZM10.4662 11.714H15.5293C15.3439 8.66763 14.4789 5.70141 12.9978 3.03286C11.5162 5.7013 10.6508 8.66753 10.4649 11.714H10.4662ZM15.9421 3.14215C17.2105 5.83275 17.9454 8.74373 18.1059 11.714H23.2038C22.9536 9.73542 22.1342 7.87208 20.845 6.35039C19.5559 4.82869 17.8526 3.71414 15.9421 3.14215Z" fill="#8E99BD"/>
</svg>
