<svg width="26" height="24" viewBox="0 0 26 24" fill="none" xmlns="http://www.w3.org/2000/svg">
<path d="M1.75 0.75H24.25C24.5815 0.75 24.8995 0.881696 25.1339 1.11612C25.3683 1.35054 25.5 1.66848 25.5 2V22C25.5 22.3315 25.3683 22.6495 25.1339 22.8839C24.8995 23.1183 24.5815 23.25 24.25 23.25H1.75C1.41848 23.25 1.10054 23.1183 0.866116 22.8839C0.631696 22.6495 0.5 22.3315 0.5 22V2C0.5 1.66848 0.631696 1.35054 0.866116 1.11612C1.10054 0.881696 1.41848 0.75 1.75 0.75ZM13.7232 11.0429C13.3502 11.3656 12.7976 11.3682 12.4216 11.0489L6.01243 5.60629C5.48637 5.15957 4.6978 5.22375 4.25091 5.74967V5.74967C3.80379 6.27585 3.86804 7.06488 4.39438 7.5118L12.4378 14.3414C12.8138 14.6607 13.3665 14.6581 13.7394 14.3354L21.6227 7.51382C22.1446 7.06223 22.2017 6.27314 21.7504 5.75105V5.75105C21.2987 5.22863 20.509 5.17141 19.9868 5.62327L13.7232 11.0429Z" fill="#293356"/>
</svg>
