<svg width="26" height="22" viewBox="0 0 26 22" fill="none" xmlns="http://www.w3.org/2000/svg">
<path d="M25.7053 3.07064C24.751 3.49276 23.739 3.76998 22.7028 3.89314C23.795 3.23993 24.6124 2.21191 25.0028 1.00064C23.9778 1.61064 22.8541 2.03814 21.6828 2.26939C20.8961 1.42761 19.8533 0.869345 18.7165 0.681372C17.5797 0.493399 16.4127 0.686254 15.3969 1.22996C14.3811 1.77366 13.5733 2.63775 13.0992 3.68788C12.6251 4.73802 12.5112 5.91537 12.7753 7.03689C10.6967 6.93271 8.66323 6.39255 6.80692 5.45147C4.95061 4.5104 3.31297 3.18945 2.00031 1.57439C1.53568 2.37245 1.29151 3.27967 1.29281 4.20314C1.29281 6.01564 2.21531 7.61689 3.61781 8.55439C2.78782 8.52826 1.9761 8.30412 1.25031 7.90064V7.96564C1.25056 9.17277 1.66827 10.3427 2.43262 11.277C3.19697 12.2113 4.26091 12.8525 5.44406 13.0919C4.67358 13.3007 3.8657 13.3315 3.08156 13.1819C3.41515 14.2209 4.06532 15.1296 4.94105 15.7808C5.81678 16.4319 6.87422 16.7929 7.96531 16.8131C6.88091 17.6648 5.63928 18.2944 4.31141 18.6659C2.98354 19.0373 1.59547 19.1435 0.226562 18.9781C2.61618 20.5149 5.39793 21.3308 8.23906 21.3281C17.8553 21.3281 23.1141 13.3619 23.1141 6.45314C23.1141 6.22814 23.1078 6.00064 23.0978 5.77814C24.1214 5.03835 25.0048 4.12192 25.7066 3.07189L25.7053 3.07064Z" fill="#293356"/>
</svg>
